PathFileType	4	(X/Y/Z)	C:/Users/beibeiliu/ov580/test_trc\sequence.36_training_dense_left.trc
DataRate	CameraRate	NumFrames	NumMarkers	Units	OrigDataRate	OrigDataStartFrame	OrigNumFrames
120	120	24	19	mm	120	160	255
Frame#	Time	ThumbCMC			ThumbMCP			ThumbIP			ThumbTip			IndexMCP			IndexPIP			IndexTip			MiddleMCP			MiddlePIP			MiddleTip			RingMCP			RingPIP			RingTip			PinkyMCP			PinkyPIP			PinkyTip			BackHand1			BackHand2			BackHand3	
		X0	Y0	Z0	X1	Y1	Z1	X2	Y2	Z2	X3	Y3	Z3	X4	Y4	Z4	X5	Y5	Z5	X6	Y6	Z6	X7	Y7	Z7	X8	Y8	Z8	X9	Y9	Z9	X10	Y10	Z10	X11	Y11	Z11	X12	Y12	Z12	X13	Y13	Z13	X14	Y14	Z14	X15	Y15	Z15	X16	Y16	Z16	X17	Y17	Z17	X18	Y18	Z18	
159	1.325	-177.758	76.6353	56.3611	-149.211	59.5661	64.4494	-132.351	42.5319	63.3042	-122.642	22.4143	63.4527	-137.5	47.4971	11.6211	-115.521	24.4754	16.6874	-112.551	12.0842	36.5106	-150.062	24.8073	3.57154	-128.794	3.37319	13.0803	-124.441	-2.44632	43.5099	-163.318	11.1176	7.54093	-140.891	-0.673025	20.0521	-139.238	-1.87724	46.6231	-178.072	4.53483	14.5075	-161.567	-6.19662	26.8401	-153.257	-1.27888	48.3934	-201.988	43.5214	15.596	-219.419	56.6905	25.404	-192.184	68.5015	23.2344	
160	1.33333	-174.787	76.0296	58.0585	-148.332	58.5487	65.5021	-130.065	40.53	65.7345	-120.395	16.0853	61.9424	-135.187	42.2617	10.7492	-115.781	23.3388	15.9774	-111.374	8.21752	42.2217	-143.939	24.6809	4.40433	-127.01	3.5102	14.8709	-127.577	-4.84224	47.38	-162.102	15.5471	7.98294	-142.902	-6.07319	22.4314	-141.742	-5.02104	45.7178	-180.093	6.08974	14.9468	-161.641	-8.52818	30.1444	-155.268	1.73195	52.513	-192.93	47.8863	15.0502	-212.287	63.5201	29.1821	-186.819	75.0227	26.4671	
161	1.34167	-169.732	76.6243	59.2803	-143.005	57.6697	69.0075	-128.852	37.4701	64.9408	-119.61	15.1912	61.8038	-131.273	45.2641	13.9547	-114.053	24.0437	16.3481	-113.883	5.83098	42.3901	-146.555	26.6999	6.312	-129.459	1.81493	13.8084	-129.094	-6.64688	44.6673	-160.591	14.3745	6.13943	-142.776	-1.12681	19.749	-144.678	-3.85356	48.4882	-180.302	10.2138	14.7478	-162.671	-4.19497	25.4306	-159.41	-1.8281	50.8198	-191.522	49.3819	16.5839	-210.722	63.2062	28.2578	-183.723	73.2232	26.6512	
162	1.35	-164.406	75.8042	59.5005	-140.15	54.3178	68.5959	-127.202	36.2198	69.217	-121.469	14.6156	63.6009	-128.092	43.8725	13.9531	-114.497	15.7462	18.9757	-113.593	1.69997	43.4259	-142.599	24.7151	4.63643	-125.564	0.897091	16.2983	-127.863	-6.16345	45.2122	-156.326	15.5242	6.99063	-145.357	-2.86043	19.5928	-145.371	-4.76872	45.9864	-177.898	10.0784	12.8193	-165.343	-6.59286	26.622	-160.112	0.673271	53.609	-190.34	53.401	18.2175	-205.264	68.5152	29.2299	-177.034	79.5343	30.9777	
163	1.35833	-156.568	74.6625	62.2486	-139.376	53.157	71.3215	-124.038	28.7008	68.7821	-121.111	8.95253	67.3412	-126.24	38.805	15.8207	-114.535	11.8069	19.5954	-114.044	-2.38442	41.3582	-140.241	24.1197	6.50431	-130.597	-1.40272	13.641	-129.469	-9.03313	44.0858	-159.831	17.4201	8.33241	-145.387	-3.02289	18.0966	-144.834	-3.57309	47.5237	-177.128	14.09	15.169	-164.624	-4.55066	25.6144	-161.498	-1.23556	48.8213	-187.723	56.6521	18.7451	-199.464	74.9017	33.6272	-171.624	79.9956	34.5005	
164	1.36667	-154.193	71.5445	62.2796	-137.883	48.9646	72.3721	-127.899	25.6046	68.4044	-121.319	3.99181	68.0787	-123.703	34.1698	15.6623	-113.371	8.87872	20.1266	-116.616	-5.53414	41.323	-140.72	23.9521	7.72588	-132.254	-5.52852	15.9247	-136.583	-11.5354	47.5159	-159.764	15.4491	8.87995	-150.615	-7.97937	19.9047	-148.328	-5.71924	45.9795	-181.159	13.5318	15.9287	-164.976	-4.34863	28.1309	-160.195	3.07248	52.6375	-185.723	55.7823	21.647	-200.459	75.175	34.4322	-166.689	77.1295	31.9865	
165	1.375	-150.506	69.867	64.0524	-137.58	45.3117	71.6484	-126.609	21.3507	69.6011	-124.901	-0.397955	67.0354	-125.451	34.3364	17.4034	-118.535	3.604	21.1739	-122.112	-9.89404	43.2542	-143.734	18.9825	7.53558	-134.068	-9.34859	18.1704	-135.779	-12.0452	48.2044	-157.46	14.5862	9.84513	-149.513	-8.98901	23.4399	-150.605	-6.28164	48.2235	-177.905	12.2315	15.8311	-171.804	-7.41051	27.7934	-164.224	1.60189	50.3062	-185.523	56.6227	20.23	-194.034	75.3627	33.3276	-167.859	75.7156	32.0042	
166	1.38333	-148.529	68.2965	66.524	-134.491	43.1362	75.3493	-122.911	19.6751	73.1712	-127.614	-1.80107	66.3667	-126.126	32.3784	18.718	-117.687	2.29455	21.8191	-119.402	-10.7936	48.6985	-141.699	16.6477	6.42731	-134.642	-10.1991	17.8264	-139.479	-14.0298	48.9038	-163.68	13.391	8.56857	-151.434	-8.36447	21.4209	-156.002	-8.36424	47.6185	-181.304	8.8298	15.9989	-168.666	-5.66099	30.475	-166.857	-0.070815	53.2908	-185.547	56.4984	21.4729	-192.705	75.9922	37.2395	-161.755	74.3686	35.6201	
167	1.39167	-150.571	69.5382	68.4066	-134.556	40.187	73.3667	-124.449	21.0422	75.0941	-125.031	-5.06121	69.1691	-123.915	28.2588	16.1663	-118.267	0.548308	21.8288	-122.302	-11.5283	46.9645	-144.161	16.216	6.78328	-135.515	-9.70781	15.4814	-143.047	-14.675	48.0882	-161.332	15.3442	10.273	-152.397	-10.778	21.3803	-156.171	-8.02159	49.5134	-179.723	12.2757	15.7872	-172.783	-8.28138	28.5054	-168.233	-3.1655	53.3648	-183.444	54.7126	20.356	-193.977	73.9126	37.4399	-161.882	72.5491	35.5148	
168	1.4	-151.765	65.1635	64.5077	-136.685	42.9164	75.4743	-127.55	18.382	71.1248	-123.173	-4.83531	70.32	-124.391	28.9499	17.3081	-118.042	-0.0779781	22.3422	-122.483	-13.0208	46.1877	-140.942	15.5814	7.653	-134.666	-11.0576	16.5511	-141.376	-13.4658	51.5157	-159.121	8.32361	9.06667	-149.275	-10.0697	24.3395	-153.577	-7.90348	48.1879	-180.224	9.37546	16.0766	-168.405	-9.09785	30.5862	-164.668	-1.71638	51.1779	-184.036	53.9438	22.3202	-196.154	70.5264	35.6841	-164.046	74.6517	34.7417	
169	1.40833	-152.763	69.023	68.0654	-138.033	40.8457	70.6087	-127.717	19.3736	68.2611	-123.861	-0.361664	68.5877	-124.493	29.6759	17.5444	-113.657	3.35283	23.4552	-117.644	-9.82765	46.06	-143.947	15.8781	7.55478	-130.336	-10.3243	20.3347	-137.538	-13.8855	48.9285	-160.371	11.71	10.4134	-152.068	-13.3016	24.1333	-156.069	-7.33268	54.6254	-176.212	8.29428	16.4539	-170.763	-10.4713	31.3795	-166.503	-2.64841	53.6912	-183.857	52.6554	22.7475	-196.403	72.4629	34.9797	-167.796	72.3674	32.714	
170	1.41667	-153.328	67.7532	63.5228	-135.585	45.2557	74.1542	-125.934	26.34	71.652	-120.056	0.575413	67.3706	-124.74	29.3301	16.0623	-114.381	6.79411	21.7587	-116.598	-7.88911	46.2154	-142.149	14.6595	7.05945	-127.599	-8.74433	21.5927	-139.071	-12.1163	49.3389	-158.796	5.53242	9.88552	-147.481	-11.5899	28.9543	-151.51	-6.67577	52.0315	-179.72	5.52609	16.8872	-166.361	-8.69261	30.2795	-163.827	2.26617	55.8861	-188.943	48.3409	21.9036	-201.945	67.5653	33.5209	-172.119	72.4422	32.2311	
171	1.425	-157.876	71.7384	62.9991	-139.787	48.5542	70.6848	-125.881	28.6798	67.6491	-117.94	11.3448	67.7583	-123.906	33.7145	15.7577	-113.897	11.7513	21.0898	-112.221	-2.69433	46.5516	-140.261	17.7282	8.14386	-125.793	-3.48356	18.8772	-131.286	-7.52183	52.9051	-155.515	10.0702	12.0665	-144.027	-8.91324	25.7108	-147.159	-3.53393	56.5144	-177.134	5.04993	18.7281	-160.998	-9.86679	33.8086	-158.258	0.318306	54.4902	-187.753	43.8657	19.0995	-205.346	66.2037	34.0258	-173.255	73.2048	33.6239	
172	1.43333	-162.402	73.2564	61.7366	-138.569	55.8883	73.3306	-123.575	36.5417	68.6845	-111.219	17.5346	71.9698	-126.926	41.7783	16.9902	-110.06	18.4477	21.0141	-104.089	7.83086	45.7629	-140.384	20.5345	10.5635	-119.666	1.20535	22.278	-125.4	-2.20733	56.2722	-149.003	9.26309	13.1316	-136.176	-6.18053	31.3338	-141.143	-3.46352	56.6022	-173.574	0.804166	20.9487	-155.138	-9.19249	37.7205	-153.446	2.46907	61.8582	-185.318	44.4577	20.1996	-206.591	58.5146	31.4082	-181.405	69.1468	30.7969	
173	1.44167	-168.613	71.9704	58.1751	-143.145	57.1205	69.2058	-121.377	44.1105	71.8625	-111.71	26.4026	72.2293	-129.378	43.6696	16.6926	-105.648	24.1172	24.8915	-103.315	12.869	46.835	-137.162	22.9247	11.8779	-114.34	5.55001	25.8888	-116.625	4.86871	58.2705	-148.56	12.5837	16.3416	-131.648	-4.79363	30.6302	-129.299	3.23003	58.5477	-165.007	0.375792	22.2963	-147.63	-6.58366	39.28	-146.592	2.86373	62.9511	-188.437	42.7941	20.4689	-206.017	51.7964	31.6428	-180.771	68.997	28.4847	
174	1.45	-173.276	72.3769	56.6684	-146.753	62.2658	66.4593	-123.183	52.9819	71.0752	-112.621	35.3135	69.8737	-130.549	51.5968	16.0221	-107.63	31.4046	23.5107	-99.2487	24.0161	49.5435	-135.171	26.2172	11.8244	-111.471	11.708	27.2242	-111.186	9.48606	54.8294	-145.36	10.2477	16.1052	-123.571	5.4027	32.9655	-124.119	7.77923	58.7522	-160.364	-0.313732	24.4399	-140.89	-2.74511	38.0897	-139.224	6.34239	61.8474	-189.266	34.0185	18.4148	-210.746	44.8893	30.5619	-187.756	65.2561	27.8824	
175	1.45833	-181.486	73.3281	55.4094	-148.844	69.6572	66.1253	-128.677	59.0416	67.3428	-109.129	47.7667	71.8751	-133.996	50.8565	13.3653	-108.279	44.3795	18.3537	-96.5664	37.6094	45.3643	-134.422	28.7753	9.63912	-110.599	18.7824	21.3013	-108.204	20.5779	56.1844	-142.68	15.0612	16.0077	-119.656	12.6908	31.736	-117.92	15.5865	54.8017	-155.116	-0.278683	24.5754	-136.466	0.13223	37.8001	-130.837	11.0521	60.2461	-192.203	32.8716	22.7475	-210.957	40.5076	31.7708	-193.338	61.476	27.1166	
176	1.46667	-181.939	71.8285	51.4228	-152.983	72.6564	62.6302	-131.644	66.4998	64.3051	-111.516	57.0631	66.5352	-138.111	54.7296	9.40955	-109.972	47.2841	17.3679	-98.9458	46.6844	39.2734	-135.326	32.5339	6.87743	-109.84	29.3732	17.3476	-105.068	32.2295	52.1963	-141.973	16.6605	14.3493	-118.329	14.3648	27.4195	-116.304	25.0999	55.2643	-151.214	5.77943	23.3874	-130.585	3.95114	39.2182	-126.72	16.0162	58.3256	-191.894	26.4911	21.3985	-212.506	32.0803	31.9278	-195.178	57.3992	23.1707	
177	1.475	-187.403	73.496	49.3106	-156.246	75.7587	57.7346	-136.153	72.4961	57.5882	-112.245	61.6314	56.5358	-139.592	59.5101	2.39667	-114.072	54.8202	9.14616	-100.715	56.7934	35.7465	-140.285	35.8992	3.33516	-109.008	34.4299	14.2431	-105.464	37.6322	43.0597	-140.598	22.0403	9.54385	-117.837	20.5106	21.6786	-114.741	31.7069	49.9612	-152.615	2.57095	23.2134	-128.537	6.47536	33.2902	-123.606	21.7525	54.6918	-189.102	21.953	18.8169	-214.079	23.6726	35.7017	-201.578	50.2127	23.0179	
178	1.48333	-189.255	71.0945	46.5093	-159.482	72.3886	49.3058	-133.916	76.3375	49.0553	-113.208	68.2436	49.5291	-147.733	59.9354	-1.47521	-118.568	56.4334	0.615289	-101.994	62.5634	27.1676	-139.25	39.5938	-4.84111	-111.14	40.6656	6.15746	-105.632	45.1288	34.9517	-143.341	21.919	5.19162	-116.103	22.105	17.6038	-113.687	36.6422	40.5487	-146.948	2.20358	19.2137	-127.92	10.0324	25.2634	-121.091	27.0779	44.1628	-189.209	17.0403	20.0243	-211.357	22.7512	32.9709	-203.671	48.1016	21.815	
179	1.49167	-190.83	67.2904	45.6139	-161.988	73.7881	47.352	-135.9	71.7011	41.2014	-116.998	65.2363	39.9681	-148.339	55.6866	-9.45196	-124.856	59.6073	-9.5557	-106.584	58.1511	13.03	-146.252	36.9493	-9.28069	-116.928	38.6101	-6.0825	-107.004	43.2791	24.3825	-145.315	15.1272	2.15908	-119.949	23.3985	7.38763	-115.119	35.8969	33.7263	-146.128	0.369213	15.0411	-125.305	11.1277	20.3322	-119.774	25.646	37.5765	-191.521	14.167	21.0815	-211.267	19.4387	37.8164	-205.509	42.0478	23.6495	
180	1.5	-187.713	63.0936	40.9236	-158.945	70.8277	41.2277	-130.667	69.3249	31.1891	-111.86	56.7025	27.4686	-155.918	47.6093	-13.0778	-125.571	50.2803	-15.1192	-107.626	58.1496	4.40992	-147.075	32.1771	-17.0934	-117.56	34.8896	-12.7829	-108.691	41.5871	16.2281	-145.087	11.1435	-6.66173	-123.101	20.5807	-2.4324	-116.753	31.9083	25.2117	-148.715	0.521678	8.23438	-127.398	6.4463	11.2831	-118.744	21.8085	27.8446	-192.056	14.9124	16.7153	-209.582	13.1689	33.5405	-203.412	36.5231	23.6543	
181	1.50833	-182.889	58.6273	37.0165	-149.992	66.7741	32.1401	-129.637	63.7283	24.5782	-109.277	49.9601	16.86	-155.31	44.919	-22.6489	-131.323	43.9565	-25.0023	-107.836	52.0696	-3.78387	-153.108	24.3946	-22.2043	-124.806	28.0203	-24.9019	-110.048	33.1842	7.56456	-153.028	5.58839	-9.53886	-123.313	14.3622	-7.31329	-118.324	24.3861	14.1503	-154.573	-8.67987	5.49008	-130.235	3.26658	2.97165	-119.234	16.0565	20.7603	-193.626	11.9098	15.54	-209.289	12.4237	38.352	-201.546	34.2169	18.3402	
182	1.51667	-179.514	55.9801	36.7944	-145.821	59.7845	26.3142	-124.17	54.0971	14.5465	-108.249	41.9317	7.59213	-160.417	41.1503	-26.1225	-134.316	39.0256	-34.1406	-108.348	42.099	-15.7466	-157.38	21.406	-28.9186	-124.936	19.5775	-30.853	-111.647	23.8154	-7.05527	-154.472	6.68326	-19.6314	-127.945	8.07474	-16.9085	-118.922	16.9622	9.49139	-156.841	-10.7972	-3.72819	-134.018	-9.51716	-4.58326	-121.569	8.03237	12.7661	-193.438	8.02242	15.1558	-208.615	13.4794	37.5292	-201.288	35.1482	19.8665	
